<svg width="48" height="48" viewBox="0 0 48 48" fill="none" xmlns="http://www.w3.org/2000/svg">
<mask id="mask0_388_659" style="mask-type:alpha" maskUnits="userSpaceOnUse" x="9" y="14" width="30" height="20">
<path fill-rule="evenodd" clip-rule="evenodd" d="M15.4997 14.084C12.3701 14.084 9.83301 16.621 9.83301 19.7507V33.9173H32.4997C35.6293 33.9173 38.1663 31.3803 38.1663 28.2507V14.084H15.4997ZM19.7497 28.6801C19.7497 29.4385 20.5665 29.9162 21.2275 29.5444L28.8879 25.2354C29.8508 24.6938 29.8508 23.3075 28.8879 22.7659L21.2275 18.4569C20.5665 18.0851 19.7497 18.5628 19.7497 19.3213L19.7497 28.6801Z" fill="black"/>
<path opacity="0.2" d="M21.2278 29.545C20.5668 29.9169 19.75 29.4392 19.75 28.6807L19.75 19.3219C19.75 18.5635 20.5668 18.0858 21.2278 18.4576L28.8883 22.7666C29.8511 23.3082 29.8511 24.6945 28.8883 25.236L21.2278 29.545Z" fill="black"/>
</mask>
<g mask="url(#mask0_388_659)">
<path d="M7 7H41V41H7V7Z" fill="#428BF9"/>
</g>
</svg>
